<svg width="45" height="45" viewBox="0 0 62 59" fill="none" xmlns="http://www.w3.org/2000/svg">
<rect width="61.8095" height="59" rx="12" fill="#01877C"/>
<path d="M14.0469 45.9804V12.6426H29.8083C31.3685 12.6426 32.7695 12.9132 34.0114 13.4545C35.2532 13.964 36.3039 14.6804 37.1636 15.6038C38.0552 16.5272 38.7398 17.6576 39.2174 18.9949C39.695 20.3004 39.9338 21.7333 39.9338 23.2935C39.9338 24.8855 39.695 26.3343 39.2174 27.6398C38.7398 28.9453 38.0552 30.0598 37.1636 30.9831C36.3039 31.9065 35.2532 32.6389 34.0114 33.1802C32.7695 33.6897 31.3685 33.9444 29.8083 33.9444H21.3067V45.9804H14.0469ZM21.3067 27.6398H28.9486C30.0312 27.6398 30.875 27.3692 31.48 26.8279C32.1168 26.2547 32.4352 25.4268 32.4352 24.3442V22.2427C32.4352 21.1601 32.1168 20.3482 31.48 19.8069C30.875 19.2337 30.0312 18.9471 28.9486 18.9471H21.3067V27.6398Z" fill="#FFE17E"/>
<circle cx="32.31" cy="42.142" r="4.21429" fill="#FFE17E"/>
<circle cx="43.5483" cy="42.142" r="4.21429" fill="#FFE17E"/>
</svg>